<svg viewBox="-36 0 512 512.0008" xmlns="http://www.w3.org/2000/svg"><path d="m247.96875 0c-105.804688 0-191.878906 86.074219-191.878906 191.878906v6.121094l-55.214844 102.539062c-2.0625 3.832032-.335938 8.757813 3.65625 10.46875l51.558594 22.09375v107.269532c0 4.152344 3.363281 7.515625 7.515625 7.515625h105.8125l15.164062 58.496093c1.058594 4.082032 5.40625 6.511719 9.4375 5.3125 3.820313-1.136718 6.109375-5.234374 5.113281-9.082031l-16.625-64.128906c-.859374-3.3125-3.851562-5.628906-7.277343-5.628906h-104.113281v-104.707031c0-3.003907-1.789063-5.722657-4.554688-6.90625l-48.558594-20.8125 52.214844-96.972657c.589844-1.09375.898438-2.320312.898438-3.5625v-8.015625c0-97.515625 79.335937-176.851562 176.851562-176.851562 97.511719 0 176.847656 79.335937 176.847656 176.851562 0 55.839844-25.566406 107.242188-70.140625 141.019532-2.492187 1.890624-3.554687 5.125-2.667969 8.125l13.816407 46.625c1.179687 3.980468 5.359375 6.25 9.339843 5.074218 3.980469-1.179687 6.25-5.363281 5.074219-9.34375l-12.363281-41.714844c21.277344-17.066406 38.933594-38.75 51.253906-62.988281 13.746094-27.046875 20.71875-56.25 20.71875-86.796875 0-105.804687-86.078125-191.878906-191.878906-191.878906zm0 0"/><path d="m389.851562 415.828125c-1.179687-3.976563-5.359374-6.242187-9.339843-5.070313-3.980469 1.179688-6.25 5.363282-5.070313 9.339844l25.636719 86.535156c1.214844 4.085938 5.726563 6.363282 9.742187 4.9375 3.710938-1.316406 5.785157-5.441406 4.671876-9.207031zm0 0"/><path d="m327.625 191.878906c0-43.921875-35.734375-79.65625-79.65625-79.65625-43.925781 0-79.65625 35.734375-79.65625 79.65625 0 28.863282 15.234375 54.9375 40.078125 69.128906v3.515626h-.5c-4.152344 0-7.515625 3.363281-7.515625 7.515624v16.53125h-.503906c-4.148438 0-7.511719 3.363282-7.511719 7.515626 0 4.152343 3.363281 7.515624 7.511719 7.515624h.503906v8.015626h-.503906c-4.148438 0-7.511719 3.363281-7.511719 7.511718 0 4.152344 3.363281 7.515625 7.511719 7.515625h1.046875c3.117187 18.734375 19.429687 33.066407 39.035156 33.066407h16.03125c19.605469 0 35.917969-14.332032 39.03125-33.066407h1.046875c4.152344 0 7.515625-3.363281 7.515625-7.515625 0-4.148437-3.363281-7.511718-7.515625-7.511718h-.5v-8.015626h.5c4.152344 0 7.515625-3.363281 7.515625-7.515624 0-4.152344-3.363281-7.515626-7.515625-7.515626h-.5v-16.53125c0-4.152343-3.363281-7.515624-7.515625-7.515624h-.5v-3.515626c24.839844-14.191406 40.078125-40.265624 40.078125-69.128906zm-71.640625 152.800782h-16.03125c-11.28125 0-20.804687-7.648438-23.664063-18.035157h63.359376c-2.859376 10.386719-12.382813 18.035157-23.664063 18.035157zm24.546875-33.0625h-65.128906v-8.015626h65.128906zm-65.128906-23.046876v-9.019531h65.128906v9.019531zm40.082031-24.046874v-49.097657h16.53125c4.152344 0 7.515625-3.363281 7.515625-7.515625v-24.046875c0-4.152343-3.363281-7.515625-7.515625-7.515625s-7.515625 3.363282-7.515625 7.515625v16.53125h-33.066406v-16.53125c0-4.152343-3.363282-7.515625-7.511719-7.515625-4.152344 0-7.515625 3.363282-7.515625 7.515625v24.046875c0 4.152344 3.363281 7.515625 7.515625 7.515625h16.53125v49.097657h-17.035156v-8.019532c0-2.851562-1.613281-5.457031-4.167969-6.726562-22.148438-11.011719-35.910156-33.195313-35.910156-57.898438 0-35.636718 28.992187-64.628906 64.628906-64.628906s64.628906 28.992188 64.628906 64.628906c0 24.703125-13.761718 46.886719-35.910156 57.898438-2.554688 1.269531-4.171875 3.875-4.171875 6.726562v8.019532zm0 0"/><path d="m255.484375 95.6875v-16.03125c0-4.148438-3.363281-7.511719-7.515625-7.511719s-7.515625 3.363281-7.515625 7.511719v16.03125c0 4.152344 3.363281 7.515625 7.515625 7.515625s7.515625-3.363281 7.515625-7.515625zm0 0"/><path d="m199.878906 116.089844c5.699219 0 9.335938-6.367188 6.503906-11.273438l-8.019531-13.882812c-2.074219-3.59375-6.671875-4.824219-10.261719-2.75-3.597656 2.074218-4.828124 6.671875-2.753906 10.265625 2.652344 4.59375 5.246094 9.230469 7.960938 13.785156 1.394531 2.339844 3.808594 3.855469 6.570312 3.855469zm0 0"/><path d="m160.90625 150.292969c3.835938 2.210937 8.871094.546875 10.644531-3.5 1.519531-3.460938.140625-7.628907-3.128906-9.519531l-13.882813-8.015626c-3.597656-2.074218-8.191406-.84375-10.265624 2.753907-2.074219 3.59375-.84375 8.1875 2.75 10.261719zm0 0"/><path d="m128.230469 191.878906c0 4.152344 3.363281 7.515625 7.515625 7.515625h16.03125c4.152344 0 7.515625-3.363281 7.515625-7.515625s-3.363281-7.515625-7.515625-7.515625h-16.03125c-4.148438 0-7.515625 3.363281-7.515625 7.515625zm0 0"/><path d="m150.789062 255.507812c1.273438 0 2.566407-.328124 3.75-1.011718l13.882813-8.015625c3.59375-2.074219 4.824219-6.667969 2.75-10.261719-2.074219-3.597656-6.671875-4.828125-10.265625-2.753906l-13.882812 8.015625c-2.796876 1.617187-4.269532 4.941406-3.589844 8.097656.742187 3.421875 3.855468 5.929687 7.355468 5.929687zm0 0"/><path d="m348.914062 241.480469-13.886718-8.015625c-3.59375-2.074219-8.1875-.84375-10.261719 2.753906-2.078125 3.59375-.84375 8.1875 2.75 10.261719l13.882813 8.015625c3.832031 2.214844 8.871093.546875 10.644531-3.496094 1.515625-3.460938.140625-7.628906-3.128907-9.519531zm0 0"/><path d="m336.644531 191.878906c0 4.152344 3.363281 7.515625 7.515625 7.515625h16.03125c4.148438 0 7.511719-3.363281 7.511719-7.515625s-3.363281-7.515625-7.511719-7.515625h-16.03125c-4.152344 0-7.515625 3.363281-7.515625 7.515625zm0 0"/><path d="m341.398438 129.261719c-3.34375 1.929687-6.683594 3.859375-10.027344 5.789062-1.28125.738281-2.578125 1.457031-3.847656 2.21875-2.902344 1.742188-4.40625 5.191407-3.503907 8.496094 1.28125 4.675781 6.800781 6.957031 11.007813 4.527344l13.886718-8.015625c3.59375-2.074219 4.824219-6.671875 2.75-10.265625-2.074218-3.59375-6.675781-4.824219-10.265624-2.75zm0 0"/><path d="m296.054688 116.089844c2.597656 0 5.125-1.347656 6.515624-3.757813l8.015626-13.882812c2.074218-3.59375.84375-8.191407-2.75-10.265625-3.59375-2.074219-8.191407-.84375-10.265626 2.75l-8.015624 13.882812c-2.832032 4.90625.804687 11.273438 6.5 11.273438zm0 0"/></svg>