<svg id="Layer_1" data-name="Layer 1" xmlns="http://www.w3.org/2000/svg" viewBox="0 0 715 715"><defs><style>.cls-1{fill:rgba(0,0,0,.5);}</style></defs><title>dots</title><rect class="cls-1" width="1" height="1"/><rect class="cls-1" x="42" width="1" height="1"/><rect class="cls-1" x="84" width="1" height="1"/><rect class="cls-1" x="126" width="1" height="1"/><rect class="cls-1" x="168" width="1" height="1"/><rect class="cls-1" x="210" width="1" height="1"/><rect class="cls-1" x="252" width="1" height="1"/><rect class="cls-1" x="294" width="1" height="1"/><rect class="cls-1" x="336" width="1" height="1"/><rect class="cls-1" x="378" width="1" height="1"/><rect class="cls-1" x="420" width="1" height="1"/><rect class="cls-1" x="462" width="1" height="1"/><rect class="cls-1" x="504" width="1" height="1"/><rect class="cls-1" x="546" width="1" height="1"/><rect class="cls-1" x="588" width="1" height="1"/><rect class="cls-1" x="630" width="1" height="1"/><rect class="cls-1" x="672" width="1" height="1"/><rect class="cls-1" x="714" width="1" height="1"/><rect class="cls-1" y="42" width="1" height="1"/><rect class="cls-1" x="42" y="42" width="1" height="1"/><rect class="cls-1" x="84" y="42" width="1" height="1"/><rect class="cls-1" x="126" y="42" width="1" height="1"/><rect class="cls-1" x="168" y="42" width="1" height="1"/><rect class="cls-1" x="210" y="42" width="1" height="1"/><rect class="cls-1" x="252" y="42" width="1" height="1"/><rect class="cls-1" x="294" y="42" width="1" height="1"/><rect class="cls-1" x="336" y="42" width="1" height="1"/><rect class="cls-1" x="378" y="42" width="1" height="1"/><rect class="cls-1" x="420" y="42" width="1" height="1"/><rect class="cls-1" x="462" y="42" width="1" height="1"/><rect class="cls-1" x="504" y="42" width="1" height="1"/><rect class="cls-1" x="546" y="42" width="1" height="1"/><rect class="cls-1" x="588" y="42" width="1" height="1"/><rect class="cls-1" x="630" y="42" width="1" height="1"/><rect class="cls-1" x="672" y="42" width="1" height="1"/><rect class="cls-1" x="714" y="42" width="1" height="1"/><rect class="cls-1" y="84" width="1" height="1"/><rect class="cls-1" x="42" y="84" width="1" height="1"/><rect class="cls-1" x="84" y="84" width="1" height="1"/><rect class="cls-1" x="126" y="84" width="1" height="1"/><rect class="cls-1" x="168" y="84" width="1" height="1"/><rect class="cls-1" x="210" y="84" width="1" height="1"/><rect class="cls-1" x="252" y="84" width="1" height="1"/><rect class="cls-1" x="294" y="84" width="1" height="1"/><rect class="cls-1" x="336" y="84" width="1" height="1"/><rect class="cls-1" x="378" y="84" width="1" height="1"/><rect class="cls-1" x="420" y="84" width="1" height="1"/><rect class="cls-1" x="462" y="84" width="1" height="1"/><rect class="cls-1" x="504" y="84" width="1" height="1"/><rect class="cls-1" x="546" y="84" width="1" height="1"/><rect class="cls-1" x="588" y="84" width="1" height="1"/><rect class="cls-1" x="630" y="84" width="1" height="1"/><rect class="cls-1" x="672" y="84" width="1" height="1"/><rect class="cls-1" x="714" y="84" width="1" height="1"/><rect class="cls-1" y="126" width="1" height="1"/><rect class="cls-1" x="42" y="126" width="1" height="1"/><rect class="cls-1" x="84" y="126" width="1" height="1"/><rect class="cls-1" x="126" y="126" width="1" height="1"/><rect class="cls-1" x="168" y="126" width="1" height="1"/><rect class="cls-1" x="210" y="126" width="1" height="1"/><rect class="cls-1" x="252" y="126" width="1" height="1"/><rect class="cls-1" x="294" y="126" width="1" height="1"/><rect class="cls-1" x="336" y="126" width="1" height="1"/><rect class="cls-1" x="378" y="126" width="1" height="1"/><rect class="cls-1" x="420" y="126" width="1" height="1"/><rect class="cls-1" x="462" y="126" width="1" height="1"/><rect class="cls-1" x="504" y="126" width="1" height="1"/><rect class="cls-1" x="546" y="126" width="1" height="1"/><rect class="cls-1" x="588" y="126" width="1" height="1"/><rect class="cls-1" x="630" y="126" width="1" height="1"/><rect class="cls-1" x="672" y="126" width="1" height="1"/><rect class="cls-1" x="714" y="126" width="1" height="1"/><rect class="cls-1" y="168" width="1" height="1"/><rect class="cls-1" x="42" y="168" width="1" height="1"/><rect class="cls-1" x="84" y="168" width="1" height="1"/><rect class="cls-1" x="126" y="168" width="1" height="1"/><rect class="cls-1" x="168" y="168" width="1" height="1"/><rect class="cls-1" x="210" y="168" width="1" height="1"/><rect class="cls-1" x="252" y="168" width="1" height="1"/><rect class="cls-1" x="294" y="168" width="1" height="1"/><rect class="cls-1" x="336" y="168" width="1" height="1"/><rect class="cls-1" x="378" y="168" width="1" height="1"/><rect class="cls-1" x="420" y="168" width="1" height="1"/><rect class="cls-1" x="462" y="168" width="1" height="1"/><rect class="cls-1" x="504" y="168" width="1" height="1"/><rect class="cls-1" x="546" y="168" width="1" height="1"/><rect class="cls-1" x="588" y="168" width="1" height="1"/><rect class="cls-1" x="630" y="168" width="1" height="1"/><rect class="cls-1" x="672" y="168" width="1" height="1"/><rect class="cls-1" x="714" y="168" width="1" height="1"/><rect class="cls-1" y="210" width="1" height="1"/><rect class="cls-1" x="42" y="210" width="1" height="1"/><rect class="cls-1" x="84" y="210" width="1" height="1"/><rect class="cls-1" x="126" y="210" width="1" height="1"/><rect class="cls-1" x="168" y="210" width="1" height="1"/><rect class="cls-1" x="210" y="210" width="1" height="1"/><rect class="cls-1" x="252" y="210" width="1" height="1"/><rect class="cls-1" x="294" y="210" width="1" height="1"/><rect class="cls-1" x="336" y="210" width="1" height="1"/><rect class="cls-1" x="378" y="210" width="1" height="1"/><rect class="cls-1" x="420" y="210" width="1" height="1"/><rect class="cls-1" x="462" y="210" width="1" height="1"/><rect class="cls-1" x="504" y="210" width="1" height="1"/><rect class="cls-1" x="546" y="210" width="1" height="1"/><rect class="cls-1" x="588" y="210" width="1" height="1"/><rect class="cls-1" x="630" y="210" width="1" height="1"/><rect class="cls-1" x="672" y="210" width="1" height="1"/><rect class="cls-1" x="714" y="210" width="1" height="1"/><rect class="cls-1" y="252" width="1" height="1"/><rect class="cls-1" x="42" y="252" width="1" height="1"/><rect class="cls-1" x="84" y="252" width="1" height="1"/><rect class="cls-1" x="126" y="252" width="1" height="1"/><rect class="cls-1" x="168" y="252" width="1" height="1"/><rect class="cls-1" x="210" y="252" width="1" height="1"/><rect class="cls-1" x="252" y="252" width="1" height="1"/><rect class="cls-1" x="294" y="252" width="1" height="1"/><rect class="cls-1" x="336" y="252" width="1" height="1"/><rect class="cls-1" x="378" y="252" width="1" height="1"/><rect class="cls-1" x="420" y="252" width="1" height="1"/><rect class="cls-1" x="462" y="252" width="1" height="1"/><rect class="cls-1" x="504" y="252" width="1" height="1"/><rect class="cls-1" x="546" y="252" width="1" height="1"/><rect class="cls-1" x="588" y="252" width="1" height="1"/><rect class="cls-1" x="630" y="252" width="1" height="1"/><rect class="cls-1" x="672" y="252" width="1" height="1"/><rect class="cls-1" x="714" y="252" width="1" height="1"/><rect class="cls-1" y="294" width="1" height="1"/><rect class="cls-1" x="42" y="294" width="1" height="1"/><rect class="cls-1" x="84" y="294" width="1" height="1"/><rect class="cls-1" x="126" y="294" width="1" height="1"/><rect class="cls-1" x="168" y="294" width="1" height="1"/><rect class="cls-1" x="210" y="294" width="1" height="1"/><rect class="cls-1" x="252" y="294" width="1" height="1"/><rect class="cls-1" x="294" y="294" width="1" height="1"/><rect class="cls-1" x="336" y="294" width="1" height="1"/><rect class="cls-1" x="378" y="294" width="1" height="1"/><rect class="cls-1" x="420" y="294" width="1" height="1"/><rect class="cls-1" x="462" y="294" width="1" height="1"/><rect class="cls-1" x="504" y="294" width="1" height="1"/><rect class="cls-1" x="546" y="294" width="1" height="1"/><rect class="cls-1" x="588" y="294" width="1" height="1"/><rect class="cls-1" x="630" y="294" width="1" height="1"/><rect class="cls-1" x="672" y="294" width="1" height="1"/><rect class="cls-1" x="714" y="294" width="1" height="1"/><rect class="cls-1" y="336" width="1" height="1"/><rect class="cls-1" x="42" y="336" width="1" height="1"/><rect class="cls-1" x="84" y="336" width="1" height="1"/><rect class="cls-1" x="126" y="336" width="1" height="1"/><rect class="cls-1" x="168" y="336" width="1" height="1"/><rect class="cls-1" x="210" y="336" width="1" height="1"/><rect class="cls-1" x="252" y="336" width="1" height="1"/><rect class="cls-1" x="294" y="336" width="1" height="1"/><rect class="cls-1" x="336" y="336" width="1" height="1"/><rect class="cls-1" x="378" y="336" width="1" height="1"/><rect class="cls-1" x="420" y="336" width="1" height="1"/><rect class="cls-1" x="462" y="336" width="1" height="1"/><rect class="cls-1" x="504" y="336" width="1" height="1"/><rect class="cls-1" x="546" y="336" width="1" height="1"/><rect class="cls-1" x="588" y="336" width="1" height="1"/><rect class="cls-1" x="630" y="336" width="1" height="1"/><rect class="cls-1" x="672" y="336" width="1" height="1"/><rect class="cls-1" x="714" y="336" width="1" height="1"/><rect class="cls-1" y="378" width="1" height="1"/><rect class="cls-1" x="42" y="378" width="1" height="1"/><rect class="cls-1" x="84" y="378" width="1" height="1"/><rect class="cls-1" x="126" y="378" width="1" height="1"/><rect class="cls-1" x="168" y="378" width="1" height="1"/><rect class="cls-1" x="210" y="378" width="1" height="1"/><rect class="cls-1" x="252" y="378" width="1" height="1"/><rect class="cls-1" x="294" y="378" width="1" height="1"/><rect class="cls-1" x="336" y="378" width="1" height="1"/><rect class="cls-1" x="378" y="378" width="1" height="1"/><rect class="cls-1" x="420" y="378" width="1" height="1"/><rect class="cls-1" x="462" y="378" width="1" height="1"/><rect class="cls-1" x="504" y="378" width="1" height="1"/><rect class="cls-1" x="546" y="378" width="1" height="1"/><rect class="cls-1" x="588" y="378" width="1" height="1"/><rect class="cls-1" x="630" y="378" width="1" height="1"/><rect class="cls-1" x="672" y="378" width="1" height="1"/><rect class="cls-1" x="714" y="378" width="1" height="1"/><rect class="cls-1" y="420" width="1" height="1"/><rect class="cls-1" x="42" y="420" width="1" height="1"/><rect class="cls-1" x="84" y="420" width="1" height="1"/><rect class="cls-1" x="126" y="420" width="1" height="1"/><rect class="cls-1" x="168" y="420" width="1" height="1"/><rect class="cls-1" x="210" y="420" width="1" height="1"/><rect class="cls-1" x="252" y="420" width="1" height="1"/><rect class="cls-1" x="294" y="420" width="1" height="1"/><rect class="cls-1" x="336" y="420" width="1" height="1"/><rect class="cls-1" x="378" y="420" width="1" height="1"/><rect class="cls-1" x="420" y="420" width="1" height="1"/><rect class="cls-1" x="462" y="420" width="1" height="1"/><rect class="cls-1" x="504" y="420" width="1" height="1"/><rect class="cls-1" x="546" y="420" width="1" height="1"/><rect class="cls-1" x="588" y="420" width="1" height="1"/><rect class="cls-1" x="630" y="420" width="1" height="1"/><rect class="cls-1" x="672" y="420" width="1" height="1"/><rect class="cls-1" x="714" y="420" width="1" height="1"/><rect class="cls-1" y="462" width="1" height="1"/><rect class="cls-1" x="42" y="462" width="1" height="1"/><rect class="cls-1" x="84" y="462" width="1" height="1"/><rect class="cls-1" x="126" y="462" width="1" height="1"/><rect class="cls-1" x="168" y="462" width="1" height="1"/><rect class="cls-1" x="210" y="462" width="1" height="1"/><rect class="cls-1" x="252" y="462" width="1" height="1"/><rect class="cls-1" x="294" y="462" width="1" height="1"/><rect class="cls-1" x="336" y="462" width="1" height="1"/><rect class="cls-1" x="378" y="462" width="1" height="1"/><rect class="cls-1" x="420" y="462" width="1" height="1"/><rect class="cls-1" x="462" y="462" width="1" height="1"/><rect class="cls-1" x="504" y="462" width="1" height="1"/><rect class="cls-1" x="546" y="462" width="1" height="1"/><rect class="cls-1" x="588" y="462" width="1" height="1"/><rect class="cls-1" x="630" y="462" width="1" height="1"/><rect class="cls-1" x="672" y="462" width="1" height="1"/><rect class="cls-1" x="714" y="462" width="1" height="1"/><rect class="cls-1" y="504" width="1" height="1"/><rect class="cls-1" x="42" y="504" width="1" height="1"/><rect class="cls-1" x="84" y="504" width="1" height="1"/><rect class="cls-1" x="126" y="504" width="1" height="1"/><rect class="cls-1" x="168" y="504" width="1" height="1"/><rect class="cls-1" x="210" y="504" width="1" height="1"/><rect class="cls-1" x="252" y="504" width="1" height="1"/><rect class="cls-1" x="294" y="504" width="1" height="1"/><rect class="cls-1" x="336" y="504" width="1" height="1"/><rect class="cls-1" x="378" y="504" width="1" height="1"/><rect class="cls-1" x="420" y="504" width="1" height="1"/><rect class="cls-1" x="462" y="504" width="1" height="1"/><rect class="cls-1" x="504" y="504" width="1" height="1"/><rect class="cls-1" x="546" y="504" width="1" height="1"/><rect class="cls-1" x="588" y="504" width="1" height="1"/><rect class="cls-1" x="630" y="504" width="1" height="1"/><rect class="cls-1" x="672" y="504" width="1" height="1"/><rect class="cls-1" x="714" y="504" width="1" height="1"/><rect class="cls-1" y="546" width="1" height="1"/><rect class="cls-1" x="42" y="546" width="1" height="1"/><rect class="cls-1" x="84" y="546" width="1" height="1"/><rect class="cls-1" x="126" y="546" width="1" height="1"/><rect class="cls-1" x="168" y="546" width="1" height="1"/><rect class="cls-1" x="210" y="546" width="1" height="1"/><rect class="cls-1" x="252" y="546" width="1" height="1"/><rect class="cls-1" x="294" y="546" width="1" height="1"/><rect class="cls-1" x="336" y="546" width="1" height="1"/><rect class="cls-1" x="378" y="546" width="1" height="1"/><rect class="cls-1" x="420" y="546" width="1" height="1"/><rect class="cls-1" x="462" y="546" width="1" height="1"/><rect class="cls-1" x="504" y="546" width="1" height="1"/><rect class="cls-1" x="546" y="546" width="1" height="1"/><rect class="cls-1" x="588" y="546" width="1" height="1"/><rect class="cls-1" x="630" y="546" width="1" height="1"/><rect class="cls-1" x="672" y="546" width="1" height="1"/><rect class="cls-1" x="714" y="546" width="1" height="1"/><rect class="cls-1" y="588" width="1" height="1"/><rect class="cls-1" x="42" y="588" width="1" height="1"/><rect class="cls-1" x="84" y="588" width="1" height="1"/><rect class="cls-1" x="126" y="588" width="1" height="1"/><rect class="cls-1" x="168" y="588" width="1" height="1"/><rect class="cls-1" x="210" y="588" width="1" height="1"/><rect class="cls-1" x="252" y="588" width="1" height="1"/><rect class="cls-1" x="294" y="588" width="1" height="1"/><rect class="cls-1" x="336" y="588" width="1" height="1"/><rect class="cls-1" x="378" y="588" width="1" height="1"/><rect class="cls-1" x="420" y="588" width="1" height="1"/><rect class="cls-1" x="462" y="588" width="1" height="1"/><rect class="cls-1" x="504" y="588" width="1" height="1"/><rect class="cls-1" x="546" y="588" width="1" height="1"/><rect class="cls-1" x="588" y="588" width="1" height="1"/><rect class="cls-1" x="630" y="588" width="1" height="1"/><rect class="cls-1" x="672" y="588" width="1" height="1"/><rect class="cls-1" x="714" y="588" width="1" height="1"/><rect class="cls-1" y="630" width="1" height="1"/><rect class="cls-1" x="42" y="630" width="1" height="1"/><rect class="cls-1" x="84" y="630" width="1" height="1"/><rect class="cls-1" x="126" y="630" width="1" height="1"/><rect class="cls-1" x="168" y="630" width="1" height="1"/><rect class="cls-1" x="210" y="630" width="1" height="1"/><rect class="cls-1" x="252" y="630" width="1" height="1"/><rect class="cls-1" x="294" y="630" width="1" height="1"/><rect class="cls-1" x="336" y="630" width="1" height="1"/><rect class="cls-1" x="378" y="630" width="1" height="1"/><rect class="cls-1" x="420" y="630" width="1" height="1"/><rect class="cls-1" x="462" y="630" width="1" height="1"/><rect class="cls-1" x="504" y="630" width="1" height="1"/><rect class="cls-1" x="546" y="630" width="1" height="1"/><rect class="cls-1" x="588" y="630" width="1" height="1"/><rect class="cls-1" x="630" y="630" width="1" height="1"/><rect class="cls-1" x="672" y="630" width="1" height="1"/><rect class="cls-1" x="714" y="630" width="1" height="1"/><rect class="cls-1" y="672" width="1" height="1"/><rect class="cls-1" x="42" y="672" width="1" height="1"/><rect class="cls-1" x="84" y="672" width="1" height="1"/><rect class="cls-1" x="126" y="672" width="1" height="1"/><rect class="cls-1" x="168" y="672" width="1" height="1"/><rect class="cls-1" x="210" y="672" width="1" height="1"/><rect class="cls-1" x="252" y="672" width="1" height="1"/><rect class="cls-1" x="294" y="672" width="1" height="1"/><rect class="cls-1" x="336" y="672" width="1" height="1"/><rect class="cls-1" x="378" y="672" width="1" height="1"/><rect class="cls-1" x="420" y="672" width="1" height="1"/><rect class="cls-1" x="462" y="672" width="1" height="1"/><rect class="cls-1" x="504" y="672" width="1" height="1"/><rect class="cls-1" x="546" y="672" width="1" height="1"/><rect class="cls-1" x="588" y="672" width="1" height="1"/><rect class="cls-1" x="630" y="672" width="1" height="1"/><rect class="cls-1" x="672" y="672" width="1" height="1"/><rect class="cls-1" x="714" y="672" width="1" height="1"/><rect class="cls-1" y="714" width="1" height="1"/><rect class="cls-1" x="42" y="714" width="1" height="1"/><rect class="cls-1" x="84" y="714" width="1" height="1"/><rect class="cls-1" x="126" y="714" width="1" height="1"/><rect class="cls-1" x="168" y="714" width="1" height="1"/><rect class="cls-1" x="210" y="714" width="1" height="1"/><rect class="cls-1" x="252" y="714" width="1" height="1"/><rect class="cls-1" x="294" y="714" width="1" height="1"/><rect class="cls-1" x="336" y="714" width="1" height="1"/><rect class="cls-1" x="378" y="714" width="1" height="1"/><rect class="cls-1" x="420" y="714" width="1" height="1"/><rect class="cls-1" x="462" y="714" width="1" height="1"/><rect class="cls-1" x="504" y="714" width="1" height="1"/><rect class="cls-1" x="546" y="714" width="1" height="1"/><rect class="cls-1" x="588" y="714" width="1" height="1"/><rect class="cls-1" x="630" y="714" width="1" height="1"/><rect class="cls-1" x="672" y="714" width="1" height="1"/><rect class="cls-1" x="714" y="714" width="1" height="1"/></svg>