<svg height="512pt" viewBox="0 0 512 512" width="512pt" xmlns="http://www.w3.org/2000/svg"><path d="m510.292969 490.050781-150-287c-2.585938-4.949219-7.707031-8.050781-13.292969-8.050781s-10.707031 3.101562-13.292969 8.050781l-34.605469 66.210938-75.101562-141.484375v-32.777344h70c8.285156 0 15-6.714844 15-15v-65c0-8.285156-6.714844-15-15-15h-85c-8.28125 0-15 6.714844-15 15v112.773438l-192.25 362.195312c-2.46875 4.648438-2.316406 10.25.394531 14.761719 2.714844 4.511719 7.589844 7.269531 12.855469 7.269531h482c5.246094 0 10.113281-2.742188 12.828125-7.226562 2.71875-4.492188 2.894531-10.070313.464844-14.722657zm-286.292969-460.050781h55v35h-55zm123 212.382812 18.382812 35.175782-18.261718 13.632812-18.296875-14.035156zm-138-78.878906 32.703125 61.609375-33.007813 26.023438-33.210937-24.488281zm-169.054688 318.496094 121.320313-228.5625s38.832031 28.636719 38.832031 28.636719c5.394532 3.976562 12.921875 3.859375 18.1875-.296875l37.710938-29.734375s30.007812 56.53125 30.019531 56.554687l92.039063 173.402344zm372.074219 0-92.414062-174.105469s18.265625 14.007813 18.265625 14.007813c5.222656 4.007812 12.765625 4.101562 18.101562.117187l23.484375-17.53125 92.777344 177.511719zm0 0"/></svg>