<?xml version="1.0" encoding="UTF-8" standalone="no"?><!DOCTYPE svg PUBLIC "-//W3C//DTD SVG 1.1//EN" "http://www.w3.org/Graphics/SVG/1.1/DTD/svg11.dtd"><svg width="100%" height="100%" viewBox="0 0 294 223" version="1.1" xmlns="http://www.w3.org/2000/svg" xmlns:xlink="http://www.w3.org/1999/xlink" xml:space="preserve" xmlns:serif="http://www.serif.com/" style="fill-rule:evenodd;clip-rule:evenodd;stroke-linejoin:round;stroke-miterlimit:1.41421;"><path id="Selection" d="M41.391,0.008l24.344,38.613l32.852,51.485l23.661,36.468c5.072,-5.224 11.945,-17.515 16.412,-24.219l36.886,-56.226c3.407,-5.073 13.938,-22.352 17.942,-24.648c2.282,-1.298 5.189,-1.083 7.691,-1.094c6.498,-0.011 13.948,-0.622 20.214,1.073l-15.824,24.669l-14.266,21.452l-9.914,16.089l-10.252,15.017c-1.492,2.145 -4.332,5.867 -4.611,8.58c-0.462,4.527 8.413,16.347 11.551,19.307l21.264,-33.25l30.86,-48.267l28.733,-45.049l-69.306,0c-1.915,0 -4.909,-0.129 -6.651,0.643c-4.053,1.781 -11.599,15.199 -14.651,19.736l-28.983,44.277c-4.235,6.457 -13.187,19.071 -16.133,25.442l-20.897,-32.178l-23.382,-36.468l19.252,-1.073l9.587,1.867l13.515,18.512c3.658,-2.102 11.83,-12.431 11.561,-17.161c-0.154,-2.789 -3.639,-7.358 -5.179,-9.653c-6.709,-9.975 -6.728,-13.923 -16.97,-13.944l-69.306,0Zm45.328,131.693c-5.448,2.242 -3.995,8.023 -0.915,9.181c5.179,1.963 9.549,-8.098 0.915,-9.181Zm15.314,72.1c1.088,5.899 2.349,10.479 7.047,14.072c9.471,7.24 34.316,6.854 34.316,-14.072c0,-13.097 -9.973,-16.872 -19.223,-20.723c-3.552,-1.48 -9.722,-3.807 -10.916,-8.28c-0.76,-2.8 0.616,-5.31 2.397,-7.315c5.641,-5.782 11.878,-1.985 18.145,0l1.925,-8.731c-7.47,-3.154 -14.449,-4.441 -22.14,-1.126c-9.038,3.904 -12.629,15.777 -7.026,24.68c5.727,9.096 20.339,8.935 25.864,16.336c6.151,8.226 -4.014,17.536 -14.025,13.621c-6.449,-2.52 -5.977,-6.296 -9.038,-7.851c-1.589,-0.804 -5.468,-0.611 -7.326,-0.611Zm48.129,0c1.406,16.786 18.318,21.881 30.803,16.561c8.269,-3.529 12.533,-13.805 9.164,-22.997c-5.41,-14.748 -22.014,-11.734 -27.963,-20.497c-4.236,-6.221 1.925,-11.573 7.248,-12.356c3.667,-0.547 8.066,1.523 11.551,2.821l2.888,-8.581c-8.067,-2.918 -14.92,-4.591 -23.102,-0.772c-8.991,4.193 -12.254,16.625 -5.968,25.216c5.352,7.315 19.829,8.946 24.95,14.587c6.594,7.251 -0.202,14.652 -7.431,15.457c-9.02,1.008 -12.263,-6.651 -14.795,-8.345c-2.012,-1.341 -5.054,-1.084 -7.345,-1.094Zm-150.162,-47.194l16.364,63.283l9.895,-1.062l4.139,-12.882l7.143,-28.96l3.59,16.089l6.035,26.815l4.813,0c6.998,-0.14 5.987,-1.373 9.809,-15.017l13.293,-47.194c-2.647,-0.836 -6.545,-2.006 -8.73,0.644c-1.415,1.716 -3.62,11.562 -4.342,14.373l-9.067,33.25l-8.259,-35.396c-0.664,-3.271 -1.723,-11.798 -4.553,-13.3c-6.401,-3.389 -7.874,4.13 -8.971,9.01l-9.02,40.759l-9.356,-34.323l-4.909,-14.373l-7.874,-1.716Zm236.795,59.947l-1.925,-7.39c-8.308,1.426 -22.977,10.146 -26.751,-4.291c-0.308,-2.113 -0.202,-6.264 0,-8.623c0,0 28.108,-0.58 30.052,-2.285c1.791,-1.577 1.502,-5.03 1.511,-7.326c0.058,-11.659 0.944,-24.809 -11.551,-29.174c-2.271,-0.794 -4.399,-0.826 -6.738,-0.858c-3.109,-0.033 -6.641,-0.151 -9.625,0.858c-12.37,4.161 -12.514,15.241 -12.514,27.029l0,16.089c0.01,6.039 -0.058,11.209 4.062,15.971c8.413,9.407 24.036,5.009 33.479,0Zm23.102,-56.73c-2.253,-2.799 -4.505,-2.134 -7.701,-2.145l0,62.211l7.701,0l0,-41.832c0,-2.445 -0.202,-6.178 0.981,-8.291c1.454,-2.585 5.121,-3.754 7.682,-4.236c9.606,-1.781 16.229,3.668 16.364,14.673l0,39.686l8.663,0l0,-31.106c0,-5.481 0.375,-13.107 -0.895,-18.234c-2.368,-9.578 -8.846,-13.815 -17.394,-13.943c-7.624,-0.108 -8.336,0.085 -15.401,3.217Zm-177.115,-2.145l0,54.702c0.029,4.237 0.106,9.772 5.641,8.227c3.667,-1.029 3.012,-6.038 3.022,-9.299l0,-53.63l-8.663,0Zm149.2,29.003l-24.065,1.03c0,-4.666 -0.558,-13.118 1.396,-17.054c3.533,-7.09 14.583,-8.045 19.367,-2.017c3.485,4.398 1.598,10.19 3.302,18.041Z"/></svg>