<?xml version="1.0" encoding="UTF-8" standalone="no"?><!DOCTYPE svg PUBLIC "-//W3C//DTD SVG 1.1//EN" "http://www.w3.org/Graphics/SVG/1.1/DTD/svg11.dtd"><svg width="100%" height="100%" viewBox="0 0 218 127" version="1.1" xmlns="http://www.w3.org/2000/svg" xmlns:xlink="http://www.w3.org/1999/xlink" xml:space="preserve" xmlns:serif="http://www.serif.com/" style="fill-rule:evenodd;clip-rule:evenodd;stroke-linejoin:round;stroke-miterlimit:1.41421;"><path id="Selection" d="M0,0.008l24.344,38.613l32.852,51.485l23.661,36.468c5.072,-5.224 11.945,-17.515 16.412,-24.219l36.886,-56.226c3.407,-5.073 13.938,-22.352 17.942,-24.648c2.282,-1.298 5.189,-1.083 7.691,-1.094c6.498,-0.011 13.948,-0.622 20.214,1.073l-15.824,24.669l-14.266,21.452l-9.914,16.089l-10.252,15.017c-1.492,2.145 -4.332,5.867 -4.611,8.58c-0.462,4.527 8.413,16.347 11.551,19.307l21.264,-33.25l30.86,-48.267l28.733,-45.049l-69.306,0c-1.915,0 -4.909,-0.129 -6.651,0.643c-4.053,1.781 -11.599,15.199 -14.651,19.736l-28.983,44.277c-4.235,6.457 -13.187,19.071 -16.133,25.442l-20.897,-32.178l-23.382,-36.468l19.252,-1.073l9.587,1.867l13.515,18.512c3.658,-2.102 11.83,-12.431 11.561,-17.161c-0.154,-2.789 -3.639,-7.358 -5.179,-9.653c-6.709,-9.975 -6.728,-13.923 -16.97,-13.944l-69.306,0Z" style="fill:#fff;"/></svg>