<?xml version="1.0" encoding="UTF-8" standalone="no"?><!DOCTYPE svg PUBLIC "-//W3C//DTD SVG 1.1//EN" "http://www.w3.org/Graphics/SVG/1.1/DTD/svg11.dtd"><svg width="100%" height="100%" viewBox="0 0 146 102" version="1.1" xmlns="http://www.w3.org/2000/svg" xmlns:xlink="http://www.w3.org/1999/xlink" xml:space="preserve" xmlns:serif="http://www.serif.com/" style="fill-rule:evenodd;clip-rule:evenodd;stroke-linejoin:round;stroke-miterlimit:1.41421;"><path d="M87.025,11.064c-3.022,-7.749 -11.767,-11.587 -19.516,-8.565c-7.749,3.022 -11.587,11.766 -8.565,19.516l27.112,69.526c3.022,7.749 11.767,11.587 19.516,8.565c7.749,-3.022 11.587,-11.766 8.565,-19.516l-27.112,-69.526Z" style="fill:#24ff40;fill-opacity:0.796078;"/><path d="M55.7,90.781c-3.411,7.585 -12.339,10.975 -19.925,7.564c-7.586,-3.412 -10.975,-12.34 -7.564,-19.926l30.605,-68.061c3.412,-7.586 12.34,-10.975 19.926,-7.564c7.585,3.411 10.975,12.339 7.564,19.925l-30.606,68.062Z" style="fill:#49deff;fill-opacity:0.796078;"/><path d="M113.612,92.247c-3.411,7.586 -12.34,10.975 -19.926,7.564c-7.585,-3.411 -10.975,-12.339 -7.564,-19.925l30.606,-68.061c3.411,-7.586 12.339,-10.976 19.925,-7.565c7.586,3.412 10.975,12.34 7.564,19.926l-30.605,68.061Z" style="fill:#db0000;fill-opacity:0.682353;"/><path d="M29.113,9.598c-3.021,-7.75 -11.766,-11.588 -19.515,-8.566c-7.75,3.022 -11.588,11.767 -8.566,19.516l27.113,69.527c3.022,7.749 11.767,11.587 19.516,8.565c7.749,-3.022 11.587,-11.767 8.565,-19.516l-27.113,-69.526Z" style="fill:#0f1aff;fill-opacity:0.647059;"/></svg>